<mxfile host="app.diagrams.net" agent="Mozilla/5.0 (X11; Linux x86_64; rv:139.0) Gecko/20100101 Firefox/139.0" version="27.1.6">
  <diagram id="zaj-77zzGth_qm0ea0zi" name="Page-1">
    <mxGraphModel dx="2737" dy="2083" grid="1" gridSize="18" guides="1" tooltips="1" connect="1" arrows="1" fold="1" page="1" pageScale="1" pageWidth="700" pageHeight="1000" math="0" shadow="0">
      <root>
        <mxCell id="0" />
        <mxCell id="1" parent="0" />
        <mxCell id="eSTzG9Dg9wsVzItm2bsZ-59" value="&lt;div style=&quot;font-size: 22px&quot;&gt;Summarize results&lt;br&gt;&lt;/div&gt;&lt;div style=&quot;font-size: 22px&quot;&gt;(Python)&lt;/div&gt;" style="shape=process;whiteSpace=wrap;html=1;backgroundOutline=1;rounded=1;fontSize=22;fillColor=#322A3B;strokeColor=#FFFFFF;fontFamily=Roboto;fontSource=https%3A%2F%2Ffonts.googleapis.com%2Fcss%3Ffamily%3DRoboto;strokeWidth=2;fontColor=#FFFFFF;" parent="1" vertex="1">
          <mxGeometry x="660" y="975" width="250" height="150" as="geometry" />
        </mxCell>
        <mxCell id="bG7kF-eDyVyMRc1yQhHg-40" style="edgeStyle=orthogonalEdgeStyle;rounded=0;orthogonalLoop=1;jettySize=auto;html=1;exitX=1;exitY=0.5;exitDx=0;exitDy=0;entryX=0;entryY=0.5;entryDx=0;entryDy=0;strokeWidth=3;fontColor=#FFFFFF;" parent="1" edge="1">
          <mxGeometry relative="1" as="geometry">
            <mxPoint x="1115.5" y="553" as="sourcePoint" />
          </mxGeometry>
        </mxCell>
        <mxCell id="PkgLt4SOAebxEJz2yjH2-6" value="&lt;div style=&quot;font-size: 22px&quot;&gt;Summarize results&lt;br&gt;&lt;/div&gt;&lt;div style=&quot;font-size: 22px&quot;&gt;(MultiQC)&lt;br style=&quot;font-size: 22px&quot;&gt;&lt;/div&gt;" style="shape=process;whiteSpace=wrap;html=1;backgroundOutline=1;rounded=1;fontSize=22;fillColor=#322A3B;strokeColor=#FFFFFF;fontFamily=Roboto;fontSource=https%3A%2F%2Ffonts.googleapis.com%2Fcss%3Ffamily%3DRoboto;strokeWidth=2;fontColor=#FFFFFF;" parent="1" vertex="1">
          <mxGeometry x="660" y="1224" width="250" height="150" as="geometry" />
        </mxCell>
        <mxCell id="x6H9U5aBABJWhcZHyBx3-19" style="edgeStyle=orthogonalEdgeStyle;rounded=0;orthogonalLoop=1;jettySize=auto;html=1;exitX=1;exitY=0.5;exitDx=0;exitDy=0;fontColor=#FFFFFF;strokeWidth=3;" parent="1" source="eSTzG9Dg9wsVzItm2bsZ-28" target="eSTzG9Dg9wsVzItm2bsZ-5" edge="1">
          <mxGeometry relative="1" as="geometry" />
        </mxCell>
        <mxCell id="x6H9U5aBABJWhcZHyBx3-73" style="edgeStyle=orthogonalEdgeStyle;rounded=0;orthogonalLoop=1;jettySize=auto;html=1;exitX=0;exitY=0.25;exitDx=0;exitDy=0;entryX=1;entryY=0.5;entryDx=0;entryDy=0;strokeWidth=3;fontColor=#FFFFFF;" parent="1" source="eSTzG9Dg9wsVzItm2bsZ-28" target="PkgLt4SOAebxEJz2yjH2-4" edge="1">
          <mxGeometry relative="1" as="geometry" />
        </mxCell>
        <mxCell id="x6H9U5aBABJWhcZHyBx3-74" style="edgeStyle=orthogonalEdgeStyle;rounded=0;orthogonalLoop=1;jettySize=auto;html=1;exitX=0;exitY=0.75;exitDx=0;exitDy=0;entryX=1;entryY=0.5;entryDx=0;entryDy=0;strokeWidth=3;fontColor=#FFFFFF;" parent="1" source="eSTzG9Dg9wsVzItm2bsZ-28" target="PkgLt4SOAebxEJz2yjH2-30" edge="1">
          <mxGeometry relative="1" as="geometry" />
        </mxCell>
        <mxCell id="x6H9U5aBABJWhcZHyBx3-22" style="edgeStyle=orthogonalEdgeStyle;rounded=0;orthogonalLoop=1;jettySize=auto;html=1;exitX=1;exitY=0.5;exitDx=0;exitDy=0;entryX=0;entryY=0.5;entryDx=0;entryDy=0;strokeWidth=3;fontColor=#FFFFFF;" parent="1" source="PkgLt4SOAebxEJz2yjH2-53" target="PkgLt4SOAebxEJz2yjH2-54" edge="1">
          <mxGeometry relative="1" as="geometry" />
        </mxCell>
        <mxCell id="g9VtXqO7wZX4VgwAZ16k-23" style="edgeStyle=orthogonalEdgeStyle;rounded=0;orthogonalLoop=1;jettySize=auto;html=1;exitX=0.5;exitY=1;exitDx=0;exitDy=0;entryX=1;entryY=0.5;entryDx=0;entryDy=0;strokeWidth=3;" edge="1" parent="1" source="PkgLt4SOAebxEJz2yjH2-53" target="PkgLt4SOAebxEJz2yjH2-6">
          <mxGeometry relative="1" as="geometry">
            <Array as="points">
              <mxPoint x="1068" y="612" />
              <mxPoint x="1476" y="612" />
              <mxPoint x="1476" y="1299" />
            </Array>
          </mxGeometry>
        </mxCell>
        <mxCell id="PkgLt4SOAebxEJz2yjH2-53" value="&lt;div style=&quot;font-size: 22px&quot;&gt;Perform read QC&lt;/div&gt;&lt;div style=&quot;font-size: 22px&quot;&gt;(FastQC)&lt;/div&gt;" style="rounded=1;whiteSpace=wrap;html=1;fontFamily=Roboto;fontSize=22;fillColor=#CCE5FF;strokeColor=#000000;flipH=0;fontSource=https%3A%2F%2Ffonts.googleapis.com%2Fcss%3Ffamily%3DRoboto;strokeWidth=2;" parent="1" vertex="1">
          <mxGeometry x="967.5" y="376" width="200" height="100" as="geometry" />
        </mxCell>
        <mxCell id="PkgLt4SOAebxEJz2yjH2-54" value="&lt;font color=&quot;#FFFFFF&quot;&gt;Summarize FastQC (Bash)&lt;/font&gt;" style="rounded=1;whiteSpace=wrap;html=1;fontFamily=Roboto;fontSize=22;fillColor=#322A3B;strokeColor=#000000;fontSource=https%3A%2F%2Ffonts.googleapis.com%2Fcss%3Ffamily%3DRoboto;strokeWidth=2;" parent="1" vertex="1">
          <mxGeometry x="1242.5" y="376" width="200" height="100" as="geometry" />
        </mxCell>
        <mxCell id="g9VtXqO7wZX4VgwAZ16k-34" style="edgeStyle=orthogonalEdgeStyle;rounded=0;orthogonalLoop=1;jettySize=auto;html=1;exitX=0;exitY=0.5;exitDx=0;exitDy=0;entryX=0;entryY=0.5;entryDx=0;entryDy=0;strokeWidth=3;" edge="1" parent="1" source="PkgLt4SOAebxEJz2yjH2-20" target="eSTzG9Dg9wsVzItm2bsZ-59">
          <mxGeometry relative="1" as="geometry">
            <Array as="points">
              <mxPoint x="-450" y="426" />
              <mxPoint x="-450" y="1050" />
            </Array>
          </mxGeometry>
        </mxCell>
        <mxCell id="PkgLt4SOAebxEJz2yjH2-20" value="&lt;div&gt;&lt;font color=&quot;#FFFFFF&quot;&gt;Summarize BBDuk&lt;br&gt;&lt;/font&gt;&lt;/div&gt;&lt;div&gt;&lt;font color=&quot;#FFFFFF&quot;&gt;(Python)&lt;/font&gt;&lt;/div&gt;" style="rounded=1;whiteSpace=wrap;html=1;fontFamily=Roboto;fontSize=22;fillColor=#322A3B;strokeColor=#000000;fontSource=https%3A%2F%2Ffonts.googleapis.com%2Fcss%3Ffamily%3DRoboto;strokeWidth=2;" parent="1" vertex="1">
          <mxGeometry x="404" y="376" width="200" height="100" as="geometry" />
        </mxCell>
        <mxCell id="x6H9U5aBABJWhcZHyBx3-21" style="edgeStyle=orthogonalEdgeStyle;rounded=0;orthogonalLoop=1;jettySize=auto;html=1;exitX=1;exitY=0.5;exitDx=0;exitDy=0;strokeWidth=3;fontColor=#FFFFFF;" parent="1" source="eSTzG9Dg9wsVzItm2bsZ-2" target="PkgLt4SOAebxEJz2yjH2-53" edge="1">
          <mxGeometry relative="1" as="geometry" />
        </mxCell>
        <mxCell id="x6H9U5aBABJWhcZHyBx3-23" style="edgeStyle=orthogonalEdgeStyle;rounded=0;orthogonalLoop=1;jettySize=auto;html=1;exitX=0;exitY=0.5;exitDx=0;exitDy=0;entryX=1;entryY=0.5;entryDx=0;entryDy=0;strokeWidth=3;fontColor=#FFFFFF;" parent="1" source="eSTzG9Dg9wsVzItm2bsZ-2" target="PkgLt4SOAebxEJz2yjH2-20" edge="1">
          <mxGeometry relative="1" as="geometry" />
        </mxCell>
        <mxCell id="x6H9U5aBABJWhcZHyBx3-27" style="edgeStyle=orthogonalEdgeStyle;rounded=0;orthogonalLoop=1;jettySize=auto;html=1;exitX=0.5;exitY=1;exitDx=0;exitDy=0;entryX=0.5;entryY=0;entryDx=0;entryDy=0;strokeWidth=3;fontColor=#FFFFFF;" parent="1" source="eSTzG9Dg9wsVzItm2bsZ-2" edge="1">
          <mxGeometry relative="1" as="geometry">
            <mxPoint x="784.9999999999995" y="731.0000000000002" as="targetPoint" />
          </mxGeometry>
        </mxCell>
        <mxCell id="eSTzG9Dg9wsVzItm2bsZ-2" value="&lt;div&gt;Trim and clean reads&lt;/div&gt;&lt;div&gt;(BBDuk)&lt;/div&gt;" style="rounded=1;whiteSpace=wrap;html=1;fontFamily=Roboto;fontSize=22;fillColor=#CCE5FF;strokeColor=#000000;flipH=0;fontSource=https%3A%2F%2Ffonts.googleapis.com%2Fcss%3Ffamily%3DRoboto;strokeWidth=2;" parent="1" vertex="1">
          <mxGeometry x="684.5" y="376" width="200" height="100" as="geometry" />
        </mxCell>
        <mxCell id="x6H9U5aBABJWhcZHyBx3-2" style="edgeStyle=orthogonalEdgeStyle;rounded=0;orthogonalLoop=1;jettySize=auto;html=1;exitX=0.5;exitY=1;exitDx=0;exitDy=0;fontColor=#FFFFFF;" parent="1" source="PkgLt4SOAebxEJz2yjH2-20" target="PkgLt4SOAebxEJz2yjH2-20" edge="1">
          <mxGeometry relative="1" as="geometry" />
        </mxCell>
        <mxCell id="x6H9U5aBABJWhcZHyBx3-31" style="edgeStyle=orthogonalEdgeStyle;rounded=0;orthogonalLoop=1;jettySize=auto;html=1;exitX=0.5;exitY=1;exitDx=0;exitDy=0;entryX=1;entryY=0.25;entryDx=0;entryDy=0;strokeWidth=3;fontColor=#FFFFFF;" parent="1" source="PkgLt4SOAebxEJz2yjH2-22" target="eSTzG9Dg9wsVzItm2bsZ-59" edge="1">
          <mxGeometry relative="1" as="geometry" />
        </mxCell>
        <mxCell id="g9VtXqO7wZX4VgwAZ16k-24" style="edgeStyle=orthogonalEdgeStyle;rounded=0;orthogonalLoop=1;jettySize=auto;html=1;exitX=0.5;exitY=1;exitDx=0;exitDy=0;entryX=1;entryY=0.75;entryDx=0;entryDy=0;strokeWidth=3;" edge="1" parent="1" source="eSTzG9Dg9wsVzItm2bsZ-5" target="PkgLt4SOAebxEJz2yjH2-6">
          <mxGeometry relative="1" as="geometry">
            <Array as="points">
              <mxPoint x="1064" y="342" />
              <mxPoint x="1530" y="342" />
              <mxPoint x="1530" y="1337" />
            </Array>
          </mxGeometry>
        </mxCell>
        <mxCell id="eSTzG9Dg9wsVzItm2bsZ-5" value="&lt;div style=&quot;font-size: 22px&quot;&gt;Classify genus and species&lt;br&gt;&lt;/div&gt;&lt;div style=&quot;font-size: 22px&quot;&gt;(MiniKraken)&lt;br style=&quot;font-size: 22px&quot;&gt;&lt;/div&gt;" style="rounded=1;whiteSpace=wrap;html=1;fontFamily=Roboto;fontSize=22;fillColor=#CCE5FF;strokeColor=#000000;flipH=0;fontSource=https%3A%2F%2Ffonts.googleapis.com%2Fcss%3Ffamily%3DRoboto;strokeWidth=2;" parent="1" vertex="1">
          <mxGeometry x="963.5" y="110" width="200" height="100" as="geometry" />
        </mxCell>
        <mxCell id="x6H9U5aBABJWhcZHyBx3-10" style="edgeStyle=orthogonalEdgeStyle;rounded=0;orthogonalLoop=1;jettySize=auto;html=1;exitX=1;exitY=0.25;exitDx=0;exitDy=0;fontColor=#FFFFFF;strokeWidth=3;" parent="1" source="eSTzG9Dg9wsVzItm2bsZ-5" edge="1">
          <mxGeometry relative="1" as="geometry">
            <mxPoint x="1242.5" y="43" as="targetPoint" />
            <Array as="points">
              <mxPoint x="1206" y="135" />
              <mxPoint x="1206" y="43" />
            </Array>
          </mxGeometry>
        </mxCell>
        <mxCell id="x6H9U5aBABJWhcZHyBx3-11" style="edgeStyle=orthogonalEdgeStyle;rounded=0;orthogonalLoop=1;jettySize=auto;html=1;exitX=1;exitY=0.75;exitDx=0;exitDy=0;entryX=0;entryY=0.5;entryDx=0;entryDy=0;fontColor=#FFFFFF;strokeWidth=3;" parent="1" source="eSTzG9Dg9wsVzItm2bsZ-5" target="bG7kF-eDyVyMRc1yQhHg-4" edge="1">
          <mxGeometry relative="1" as="geometry" />
        </mxCell>
        <mxCell id="x6H9U5aBABJWhcZHyBx3-72" value="" style="group" parent="1" vertex="1" connectable="0">
          <mxGeometry x="125" y="11" width="479.5" height="301" as="geometry" />
        </mxCell>
        <mxCell id="PkgLt4SOAebxEJz2yjH2-5" value="&lt;div&gt;&lt;font color=&quot;#FFFFFF&quot;&gt;Summarize SeroBA&lt;br&gt;&lt;/font&gt;&lt;/div&gt;&lt;div&gt;&lt;font color=&quot;#FFFFFF&quot;&gt;(Python)&lt;/font&gt;&lt;/div&gt;" style="rounded=1;whiteSpace=wrap;html=1;fontFamily=Roboto;fontSize=22;fillColor=#322A3B;strokeColor=#000000;fontSource=https%3A%2F%2Ffonts.googleapis.com%2Fcss%3Ffamily%3DRoboto;strokeWidth=2;container=0;" parent="x6H9U5aBABJWhcZHyBx3-72" vertex="1">
          <mxGeometry width="200" height="100" as="geometry" />
        </mxCell>
        <mxCell id="x6H9U5aBABJWhcZHyBx3-75" style="edgeStyle=orthogonalEdgeStyle;rounded=0;orthogonalLoop=1;jettySize=auto;html=1;exitX=0;exitY=0.5;exitDx=0;exitDy=0;entryX=1;entryY=0.5;entryDx=0;entryDy=0;strokeWidth=3;fontColor=#FFFFFF;" parent="x6H9U5aBABJWhcZHyBx3-72" source="PkgLt4SOAebxEJz2yjH2-4" target="PkgLt4SOAebxEJz2yjH2-5" edge="1">
          <mxGeometry relative="1" as="geometry" />
        </mxCell>
        <mxCell id="PkgLt4SOAebxEJz2yjH2-4" value="Identify Serotype (SeroBA)" style="rounded=1;whiteSpace=wrap;html=1;fontFamily=Roboto;fontSize=22;fillColor=#CCE5FF;strokeColor=#000000;fontSource=https%3A%2F%2Ffonts.googleapis.com%2Fcss%3Ffamily%3DRoboto;strokeWidth=2;container=0;" parent="x6H9U5aBABJWhcZHyBx3-72" vertex="1">
          <mxGeometry x="279.5" width="200" height="100" as="geometry" />
        </mxCell>
        <mxCell id="PkgLt4SOAebxEJz2yjH2-29" value="&lt;div&gt;&lt;font color=&quot;#FFFFFF&quot;&gt;Summarize read quality&lt;/font&gt;&lt;/div&gt;&lt;div&gt;&lt;font color=&quot;#FFFFFF&quot;&gt;(Python)&lt;/font&gt;&lt;/div&gt;" style="rounded=1;whiteSpace=wrap;html=1;fontFamily=Roboto;fontSize=22;fillColor=#322A3B;strokeColor=#000000;fontSource=https%3A%2F%2Ffonts.googleapis.com%2Fcss%3Ffamily%3DRoboto;strokeWidth=2;container=0;" parent="x6H9U5aBABJWhcZHyBx3-72" vertex="1">
          <mxGeometry y="201" width="200" height="100" as="geometry" />
        </mxCell>
        <mxCell id="x6H9U5aBABJWhcZHyBx3-76" style="edgeStyle=orthogonalEdgeStyle;rounded=0;orthogonalLoop=1;jettySize=auto;html=1;exitX=0;exitY=0.5;exitDx=0;exitDy=0;strokeWidth=3;fontColor=#FFFFFF;" parent="x6H9U5aBABJWhcZHyBx3-72" source="PkgLt4SOAebxEJz2yjH2-30" target="PkgLt4SOAebxEJz2yjH2-29" edge="1">
          <mxGeometry relative="1" as="geometry" />
        </mxCell>
        <mxCell id="PkgLt4SOAebxEJz2yjH2-30" value="&lt;div style=&quot;font-size: 22px&quot;&gt;Calculate average read quality&lt;br&gt;&lt;/div&gt;&lt;div style=&quot;font-size: 22px&quot;&gt;(Bioawk)&lt;br style=&quot;font-size: 22px&quot;&gt;&lt;/div&gt;" style="rounded=1;whiteSpace=wrap;html=1;fontFamily=Roboto;fontSize=22;fillColor=#CCE5FF;strokeColor=#000000;fontSource=https%3A%2F%2Ffonts.googleapis.com%2Fcss%3Ffamily%3DRoboto;strokeWidth=2;container=0;" parent="x6H9U5aBABJWhcZHyBx3-72" vertex="1">
          <mxGeometry x="279.5" y="201" width="200" height="100" as="geometry" />
        </mxCell>
        <mxCell id="x6H9U5aBABJWhcZHyBx3-89" value="" style="group" parent="1" vertex="1" connectable="0">
          <mxGeometry x="-562" y="-131" width="212" height="131" as="geometry" />
        </mxCell>
        <mxCell id="pc77ESJ51tyzvKWDY_2_-42" value="Summary step" style="text;html=1;align=center;verticalAlign=middle;resizable=0;points=[];autosize=1;strokeColor=none;fillColor=none;fontColor=#1F1F1F;fontSize=22;" parent="x6H9U5aBABJWhcZHyBx3-89" vertex="1">
          <mxGeometry x="32" y="95" width="180" height="36" as="geometry" />
        </mxCell>
        <mxCell id="x6H9U5aBABJWhcZHyBx3-88" value="" style="group" parent="x6H9U5aBABJWhcZHyBx3-89" vertex="1" connectable="0">
          <mxGeometry width="194" height="128" as="geometry" />
        </mxCell>
        <mxCell id="pc77ESJ51tyzvKWDY_2_-37" value="" style="rounded=0;whiteSpace=wrap;html=1;fontFamily=Roboto;fontSize=22;fillColor=#cce5ff;strokeColor=#000000;fontSource=https%3A%2F%2Ffonts.googleapis.com%2Fcss%3Ffamily%3DRoboto;strokeWidth=2;" parent="x6H9U5aBABJWhcZHyBx3-88" vertex="1">
          <mxGeometry y="52" width="30" height="30" as="geometry" />
        </mxCell>
        <mxCell id="pc77ESJ51tyzvKWDY_2_-35" value="" style="rounded=0;whiteSpace=wrap;html=1;fontFamily=Roboto;fontSize=22;fillColor=#322A3B;strokeColor=#000000;fontSource=https%3A%2F%2Ffonts.googleapis.com%2Fcss%3Ffamily%3DRoboto;strokeWidth=2;" parent="x6H9U5aBABJWhcZHyBx3-88" vertex="1">
          <mxGeometry y="98" width="30" height="30" as="geometry" />
        </mxCell>
        <mxCell id="pc77ESJ51tyzvKWDY_2_-36" value="" style="rounded=0;whiteSpace=wrap;html=1;fontFamily=Roboto;fontSize=22;fillColor=#647687;strokeColor=#000000;fontSource=https%3A%2F%2Ffonts.googleapis.com%2Fcss%3Ffamily%3DRoboto;strokeWidth=2;fontColor=#ffffff;" parent="x6H9U5aBABJWhcZHyBx3-88" vertex="1">
          <mxGeometry y="3" width="30" height="30" as="geometry" />
        </mxCell>
        <mxCell id="pc77ESJ51tyzvKWDY_2_-41" value="&lt;div style=&quot;font-size: 22px;&quot; align=&quot;center&quot;&gt;Analysis step&lt;/div&gt;" style="text;html=1;align=center;verticalAlign=middle;resizable=0;points=[];autosize=1;strokeColor=none;fillColor=none;fontColor=#1F1F1F;fontSize=22;" parent="x6H9U5aBABJWhcZHyBx3-88" vertex="1">
          <mxGeometry x="32" y="49" width="162" height="36" as="geometry" />
        </mxCell>
        <mxCell id="x6H9U5aBABJWhcZHyBx3-87" value="&lt;div style=&quot;font-size: 22px;&quot; align=&quot;center&quot;&gt;Input&lt;/div&gt;" style="text;html=1;align=center;verticalAlign=middle;resizable=0;points=[];autosize=1;strokeColor=none;fillColor=none;fontColor=#1F1F1F;fontSize=22;" parent="x6H9U5aBABJWhcZHyBx3-88" vertex="1">
          <mxGeometry x="32" width="90" height="36" as="geometry" />
        </mxCell>
        <mxCell id="x6H9U5aBABJWhcZHyBx3-96" value="" style="group;fillColor=default;" parent="1" vertex="1" connectable="0">
          <mxGeometry x="684" y="85" width="200" height="293" as="geometry" />
        </mxCell>
        <mxCell id="eSTzG9Dg9wsVzItm2bsZ-28" value="&lt;div style=&quot;font-size: 22px&quot;&gt;Raw reads&lt;br style=&quot;font-size: 22px&quot;&gt;&lt;/div&gt;&lt;div style=&quot;font-size: 22px&quot;&gt;(Illumina, paired)&lt;br style=&quot;font-size: 22px&quot;&gt;&lt;/div&gt;" style="shape=document;whiteSpace=wrap;html=1;boundedLbl=1;rounded=1;fontSize=22;fillColor=#647687;strokeColor=#000000;fontFamily=Roboto;fontSource=https%3A%2F%2Ffonts.googleapis.com%2Fcss%3Ffamily%3DRoboto;strokeWidth=2;fontColor=#ffffff;" parent="x6H9U5aBABJWhcZHyBx3-96" vertex="1">
          <mxGeometry width="200" height="150" as="geometry" />
        </mxCell>
        <mxCell id="x6H9U5aBABJWhcZHyBx3-95" value="" style="endArrow=classic;html=1;rounded=0;strokeWidth=3;fontFamily=Roboto;fontSource=https%3A%2F%2Ffonts.googleapis.com%2Fcss%3Ffamily%3DRoboto;fontSize=22;fontColor=#FFFFFF;" parent="x6H9U5aBABJWhcZHyBx3-96" edge="1">
          <mxGeometry width="50" height="50" relative="1" as="geometry">
            <mxPoint x="107" y="123" as="sourcePoint" />
            <mxPoint x="107" y="293" as="targetPoint" />
          </mxGeometry>
        </mxCell>
        <mxCell id="x6H9U5aBABJWhcZHyBx3-100" style="edgeStyle=orthogonalEdgeStyle;rounded=0;orthogonalLoop=1;jettySize=auto;html=1;exitX=0.5;exitY=1;exitDx=0;exitDy=0;entryX=1;entryY=0.25;entryDx=0;entryDy=0;strokeWidth=3;fontFamily=Roboto;fontSource=https%3A%2F%2Ffonts.googleapis.com%2Fcss%3Ffamily%3DRoboto;fontSize=22;fontColor=#FFFFFF;" parent="1" source="PkgLt4SOAebxEJz2yjH2-21" target="PkgLt4SOAebxEJz2yjH2-6" edge="1">
          <mxGeometry relative="1" as="geometry" />
        </mxCell>
        <mxCell id="x6H9U5aBABJWhcZHyBx3-110" style="edgeStyle=orthogonalEdgeStyle;rounded=0;orthogonalLoop=1;jettySize=auto;html=1;exitX=0.5;exitY=1;exitDx=0;exitDy=0;entryX=0;entryY=0.25;entryDx=0;entryDy=0;strokeWidth=3;fontFamily=Roboto;fontSource=https%3A%2F%2Ffonts.googleapis.com%2Fcss%3Ffamily%3DRoboto;fontSize=22;fontColor=#FFFFFF;" parent="1" source="eSTzG9Dg9wsVzItm2bsZ-29" target="PkgLt4SOAebxEJz2yjH2-6" edge="1">
          <mxGeometry relative="1" as="geometry" />
        </mxCell>
        <mxCell id="g9VtXqO7wZX4VgwAZ16k-28" style="edgeStyle=orthogonalEdgeStyle;rounded=0;orthogonalLoop=1;jettySize=auto;html=1;exitX=0;exitY=0;exitDx=162;exitDy=99.5;exitPerimeter=0;entryX=0;entryY=0.25;entryDx=0;entryDy=0;strokeWidth=3;" edge="1" parent="1" source="g9VtXqO7wZX4VgwAZ16k-1" target="g9VtXqO7wZX4VgwAZ16k-3">
          <mxGeometry relative="1" as="geometry" />
        </mxCell>
        <mxCell id="g9VtXqO7wZX4VgwAZ16k-1" value="&lt;div&gt;&lt;font style=&quot;font-size: 22px;&quot; face=&quot;Roboto&quot;&gt;&lt;span style=&quot;&quot;&gt;NCBI assembly statistics for&amp;nbsp;&lt;i&gt;&lt;br&gt;&lt;/i&gt;&lt;/span&gt;&lt;/font&gt;&lt;/div&gt;&lt;div&gt;&lt;font style=&quot;font-size: 22px;&quot; face=&quot;Roboto&quot;&gt;&lt;span style=&quot;&quot;&gt;&lt;i&gt;S. pneumoniae&lt;/i&gt;&lt;/span&gt;&lt;/font&gt;&lt;/div&gt;" style="shape=note;whiteSpace=wrap;html=1;backgroundOutline=1;darkOpacity=0.05;fillColor=light-dark(#647687,#7D8C9B);fontColor=light-dark(#FFFFFF,#FFFFFF);" vertex="1" parent="1">
          <mxGeometry x="-344" y="485.5" width="162" height="169" as="geometry" />
        </mxCell>
        <mxCell id="g9VtXqO7wZX4VgwAZ16k-16" style="edgeStyle=orthogonalEdgeStyle;rounded=0;orthogonalLoop=1;jettySize=auto;html=1;exitX=0;exitY=0.75;exitDx=0;exitDy=0;entryX=1;entryY=0.5;entryDx=0;entryDy=0;strokeWidth=3;" edge="1" parent="1" source="g9VtXqO7wZX4VgwAZ16k-3" target="g9VtXqO7wZX4VgwAZ16k-4">
          <mxGeometry relative="1" as="geometry" />
        </mxCell>
        <mxCell id="g9VtXqO7wZX4VgwAZ16k-3" value="&lt;div&gt;Calculate ratio of observed:expected genome lengths and z-score&lt;/div&gt;&lt;div&gt;(Python)&lt;/div&gt;" style="rounded=1;whiteSpace=wrap;html=1;fontFamily=Roboto;fontSize=22;fillColor=#CCE5FF;strokeColor=#000000;fontSource=https%3A%2F%2Ffonts.googleapis.com%2Fcss%3Ffamily%3DRoboto;strokeWidth=2;" vertex="1" parent="1">
          <mxGeometry x="-80" y="620" width="324" height="144" as="geometry" />
        </mxCell>
        <mxCell id="g9VtXqO7wZX4VgwAZ16k-35" style="edgeStyle=orthogonalEdgeStyle;rounded=0;orthogonalLoop=1;jettySize=auto;html=1;exitX=0;exitY=0.5;exitDx=0;exitDy=0;entryX=0;entryY=0.25;entryDx=0;entryDy=0;strokeWidth=3;" edge="1" parent="1" source="g9VtXqO7wZX4VgwAZ16k-4" target="eSTzG9Dg9wsVzItm2bsZ-59">
          <mxGeometry relative="1" as="geometry" />
        </mxCell>
        <mxCell id="g9VtXqO7wZX4VgwAZ16k-4" value="&lt;div&gt;&lt;font color=&quot;#FFFFFF&quot;&gt;Summarize assembly length results&lt;/font&gt;&lt;/div&gt;&lt;div&gt;&lt;font color=&quot;#FFFFFF&quot;&gt;(Python)&lt;/font&gt;&lt;/div&gt;" style="rounded=1;whiteSpace=wrap;html=1;fontFamily=Roboto;fontSize=22;fillColor=#322A3B;strokeColor=#000000;fontSource=https%3A%2F%2Ffonts.googleapis.com%2Fcss%3Ffamily%3DRoboto;strokeWidth=2;" vertex="1" parent="1">
          <mxGeometry x="-382" y="725.5" width="200" height="126" as="geometry" />
        </mxCell>
        <mxCell id="x6H9U5aBABJWhcZHyBx3-24" style="edgeStyle=orthogonalEdgeStyle;rounded=0;orthogonalLoop=1;jettySize=auto;html=1;exitX=0;exitY=0.5;exitDx=0;exitDy=0;entryX=1;entryY=0.5;entryDx=0;entryDy=0;strokeWidth=3;fontColor=#FFFFFF;" parent="1" source="eSTzG9Dg9wsVzItm2bsZ-7" target="eSTzG9Dg9wsVzItm2bsZ-29" edge="1">
          <mxGeometry relative="1" as="geometry" />
        </mxCell>
        <mxCell id="x6H9U5aBABJWhcZHyBx3-26" style="edgeStyle=orthogonalEdgeStyle;rounded=0;orthogonalLoop=1;jettySize=auto;html=1;exitX=1;exitY=0.5;exitDx=0;exitDy=0;entryX=0;entryY=0.5;entryDx=0;entryDy=0;strokeWidth=3;fontColor=#FFFFFF;" parent="1" source="eSTzG9Dg9wsVzItm2bsZ-7" target="PkgLt4SOAebxEJz2yjH2-21" edge="1">
          <mxGeometry relative="1" as="geometry" />
        </mxCell>
        <mxCell id="eSTzG9Dg9wsVzItm2bsZ-7" value="&lt;div&gt;Assemble &lt;br&gt;&lt;/div&gt;&lt;div&gt;genomes &lt;br&gt;&lt;/div&gt;&lt;div&gt;(Shovill) and map cleaned reads to assembly (BWA)&lt;br&gt;&lt;/div&gt;" style="rounded=1;whiteSpace=wrap;html=1;fontFamily=Roboto;fontSize=22;fillColor=#CCE5FF;strokeColor=#000000;fontSource=https%3A%2F%2Ffonts.googleapis.com%2Fcss%3Ffamily%3DRoboto;strokeWidth=2;" parent="1" vertex="1">
          <mxGeometry x="685" y="732" width="200" height="139" as="geometry" />
        </mxCell>
        <mxCell id="g9VtXqO7wZX4VgwAZ16k-10" style="edgeStyle=orthogonalEdgeStyle;rounded=0;orthogonalLoop=1;jettySize=auto;html=1;exitX=0;exitY=0.75;exitDx=0;exitDy=0;entryX=1;entryY=0.5;entryDx=0;entryDy=0;strokeWidth=3;" edge="1" parent="1" source="eSTzG9Dg9wsVzItm2bsZ-29" target="PkgLt4SOAebxEJz2yjH2-23">
          <mxGeometry relative="1" as="geometry" />
        </mxCell>
        <mxCell id="g9VtXqO7wZX4VgwAZ16k-13" style="edgeStyle=orthogonalEdgeStyle;rounded=0;orthogonalLoop=1;jettySize=auto;html=1;exitX=0;exitY=0.25;exitDx=0;exitDy=0;entryX=1;entryY=0.5;entryDx=0;entryDy=0;strokeWidth=3;" edge="1" parent="1" source="eSTzG9Dg9wsVzItm2bsZ-29" target="g9VtXqO7wZX4VgwAZ16k-3">
          <mxGeometry relative="1" as="geometry" />
        </mxCell>
        <mxCell id="eSTzG9Dg9wsVzItm2bsZ-29" value="&lt;div&gt;Perform assembly QC&lt;/div&gt;&lt;div&gt;(QUAST)&lt;/div&gt;" style="rounded=1;whiteSpace=wrap;html=1;fontFamily=Roboto;fontSize=22;fillColor=#CCE5FF;strokeColor=#000000;fontSource=https%3A%2F%2Ffonts.googleapis.com%2Fcss%3Ffamily%3DRoboto;strokeWidth=2;" parent="1" vertex="1">
          <mxGeometry x="405" y="751.5" width="200" height="100" as="geometry" />
        </mxCell>
        <mxCell id="PkgLt4SOAebxEJz2yjH2-21" value="Calculate assembly coverage (Samtools)" style="rounded=1;whiteSpace=wrap;html=1;fontFamily=Roboto;fontSize=22;fillColor=#CCE5FF;strokeColor=#000000;fontSource=https%3A%2F%2Ffonts.googleapis.com%2Fcss%3Ffamily%3DRoboto;strokeWidth=2;" parent="1" vertex="1">
          <mxGeometry x="964" y="751.5" width="200" height="100" as="geometry" />
        </mxCell>
        <mxCell id="PkgLt4SOAebxEJz2yjH2-22" value="&lt;div&gt;&lt;font color=&quot;#FFFFFF&quot;&gt;Summarize coverage&lt;/font&gt;&lt;/div&gt;&lt;div&gt;&lt;font color=&quot;#FFFFFF&quot;&gt;(Python)&lt;/font&gt;&lt;/div&gt;" style="rounded=1;whiteSpace=wrap;html=1;fontFamily=Roboto;fontSize=22;fillColor=#322A3B;strokeColor=#000000;fontSource=https%3A%2F%2Ffonts.googleapis.com%2Fcss%3Ffamily%3DRoboto;strokeWidth=2;" parent="1" vertex="1">
          <mxGeometry x="1243.5" y="751.5" width="200" height="100" as="geometry" />
        </mxCell>
        <mxCell id="g9VtXqO7wZX4VgwAZ16k-36" style="edgeStyle=orthogonalEdgeStyle;rounded=0;orthogonalLoop=1;jettySize=auto;html=1;exitX=0.5;exitY=1;exitDx=0;exitDy=0;entryX=0.25;entryY=0;entryDx=0;entryDy=0;strokeWidth=3;" edge="1" parent="1" source="PkgLt4SOAebxEJz2yjH2-23" target="eSTzG9Dg9wsVzItm2bsZ-59">
          <mxGeometry relative="1" as="geometry">
            <Array as="points">
              <mxPoint x="144" y="936" />
              <mxPoint x="723" y="936" />
            </Array>
          </mxGeometry>
        </mxCell>
        <mxCell id="PkgLt4SOAebxEJz2yjH2-23" value="&lt;div&gt;&lt;font color=&quot;#FFFFFF&quot;&gt;Summarize QUAST&lt;br&gt;&lt;/font&gt;&lt;/div&gt;&lt;div&gt;&lt;font color=&quot;#FFFFFF&quot;&gt;(Python)&lt;/font&gt;&lt;/div&gt;" style="rounded=1;whiteSpace=wrap;html=1;fontFamily=Roboto;fontSize=22;fillColor=#322A3B;strokeColor=#000000;fontSource=https%3A%2F%2Ffonts.googleapis.com%2Fcss%3Ffamily%3DRoboto;strokeWidth=2;" parent="1" vertex="1">
          <mxGeometry x="44" y="810" width="200" height="100" as="geometry" />
        </mxCell>
        <mxCell id="PkgLt4SOAebxEJz2yjH2-65" style="edgeStyle=orthogonalEdgeStyle;rounded=0;orthogonalLoop=1;jettySize=auto;html=1;exitX=1;exitY=0.5;exitDx=0;exitDy=0;entryX=0;entryY=0.5;entryDx=0;entryDy=0;strokeWidth=3;" parent="1" source="PkgLt4SOAebxEJz2yjH2-21" target="PkgLt4SOAebxEJz2yjH2-22" edge="1">
          <mxGeometry relative="1" as="geometry" />
        </mxCell>
        <mxCell id="g9VtXqO7wZX4VgwAZ16k-25" style="edgeStyle=orthogonalEdgeStyle;rounded=0;orthogonalLoop=1;jettySize=auto;html=1;exitX=1;exitY=0.5;exitDx=0;exitDy=0;entryX=1;entryY=0.5;entryDx=0;entryDy=0;strokeWidth=3;" edge="1" parent="1" source="bG7kF-eDyVyMRc1yQhHg-4" target="eSTzG9Dg9wsVzItm2bsZ-59">
          <mxGeometry relative="1" as="geometry">
            <Array as="points">
              <mxPoint x="1584" y="261" />
              <mxPoint x="1584" y="1050" />
            </Array>
          </mxGeometry>
        </mxCell>
        <mxCell id="bG7kF-eDyVyMRc1yQhHg-4" value="&lt;div&gt;&lt;font color=&quot;#FFFFFF&quot;&gt;Summarize MiniKraken&lt;br&gt;&lt;/font&gt;&lt;/div&gt;&lt;div&gt;&lt;font color=&quot;#FFFFFF&quot;&gt;(Python)&lt;/font&gt;&lt;/div&gt;" style="rounded=1;whiteSpace=wrap;html=1;fontFamily=Roboto;fontSize=22;fillColor=#322A3B;strokeColor=#000000;fontSource=https%3A%2F%2Ffonts.googleapis.com%2Fcss%3Ffamily%3DRoboto;strokeWidth=2;" parent="1" vertex="1">
          <mxGeometry x="1242.5" y="211" width="200" height="100" as="geometry" />
        </mxCell>
        <mxCell id="g9VtXqO7wZX4VgwAZ16k-26" style="edgeStyle=orthogonalEdgeStyle;rounded=0;orthogonalLoop=1;jettySize=auto;html=1;exitX=1;exitY=0.5;exitDx=0;exitDy=0;entryX=1;entryY=0.75;entryDx=0;entryDy=0;strokeWidth=3;" edge="1" parent="1" source="x6H9U5aBABJWhcZHyBx3-1" target="eSTzG9Dg9wsVzItm2bsZ-59">
          <mxGeometry relative="1" as="geometry">
            <Array as="points">
              <mxPoint x="1638" y="6" />
              <mxPoint x="1638" y="1088" />
            </Array>
          </mxGeometry>
        </mxCell>
        <mxCell id="x6H9U5aBABJWhcZHyBx3-1" value="&lt;div style=&quot;font-size: 22px&quot;&gt;Count # of SPN reads in NTC samples&lt;br&gt;&lt;/div&gt;&lt;div style=&quot;font-size: 22px&quot;&gt;(Python)&lt;br style=&quot;font-size: 22px&quot;&gt;&lt;/div&gt;" style="rounded=1;whiteSpace=wrap;html=1;fontFamily=Roboto;fontSize=22;fillColor=#322A3B;strokeColor=#000000;flipH=0;fontSource=https%3A%2F%2Ffonts.googleapis.com%2Fcss%3Ffamily%3DRoboto;strokeWidth=2;fontColor=#FFFFFF;" parent="1" vertex="1">
          <mxGeometry x="1243.5" y="-62" width="200" height="136" as="geometry" />
        </mxCell>
        <mxCell id="g9VtXqO7wZX4VgwAZ16k-32" style="edgeStyle=orthogonalEdgeStyle;rounded=0;orthogonalLoop=1;jettySize=auto;html=1;exitX=0;exitY=0.5;exitDx=0;exitDy=0;entryX=0.25;entryY=1;entryDx=0;entryDy=0;strokeWidth=3;" edge="1" parent="1" source="PkgLt4SOAebxEJz2yjH2-5" target="eSTzG9Dg9wsVzItm2bsZ-59">
          <mxGeometry relative="1" as="geometry">
            <Array as="points">
              <mxPoint x="-558" y="61" />
              <mxPoint x="-558" y="1170" />
              <mxPoint x="723" y="1170" />
            </Array>
          </mxGeometry>
        </mxCell>
        <mxCell id="g9VtXqO7wZX4VgwAZ16k-33" style="edgeStyle=orthogonalEdgeStyle;rounded=0;orthogonalLoop=1;jettySize=auto;html=1;exitX=0;exitY=0.5;exitDx=0;exitDy=0;entryX=0;entryY=0.75;entryDx=0;entryDy=0;strokeWidth=3;" edge="1" parent="1" source="PkgLt4SOAebxEJz2yjH2-29" target="eSTzG9Dg9wsVzItm2bsZ-59">
          <mxGeometry relative="1" as="geometry">
            <Array as="points">
              <mxPoint x="-504" y="262" />
              <mxPoint x="-504" y="1088" />
            </Array>
          </mxGeometry>
        </mxCell>
      </root>
    </mxGraphModel>
  </diagram>
</mxfile>
